#!OML:ASF F:\VICON\USERDATA\Patient Classification 1\PLAYGROUND\JustinFriday\JustinFriday.ASF
:FULLY-SPECIFIED
:DEGREES
1966
root -25.3002 19.3578 -5.41594 186.836 58.46 -183.726
lowerback 20.5537 -5.42837 -7.48507
upperback 5.34833 -7.89331 3.1569
thorax -4.03218 -3.70104 9.42815
lowerneck -9.08286 -6.42975 -8.96888
upperneck -8.89314 -6.88876 15.7247
head -0.173002 -3.09824 6.03854
rclavicle -6.44062e-014 2.00773e-014
rhumerus -9.25596 -20.6473 -55.2153
rradius 120.434
rwrist -45.9278
rhand -23.4673 -6.29267
rfingers 7.12502
rthumb 2.99181 -36.2514
lclavicle -6.44062e-014 2.00773e-014
lhumerus 50.6229 -20.2682 51.1535
lradius 46.9035
lwrist -19.3411
lhand -28.7494 -17.9048
lfingers 7.12502
lthumb -2.10964 12.0645
rfemur -59.1663 -3.19496 31.8866
rtibia 79.5289
rfoot -34.1383 -13.6842
rtoes 23.5021
lfemur -2.55348 15.7442 -28.7755
ltibia 17.8984
lfoot 13.1604 19.0216
ltoes 23.4022
1967
root -25.2816 19.4553 -5.41609 190.832 59.314 -179.65
lowerback 20.5235 -5.63259 -6.71215
upperback 5.76684 -7.91573 3.71205
thorax -3.57979 -3.74701 9.56739
lowerneck -9.72255 -5.65806 -7.64369
upperneck -9.39275 -5.84445 14.8228
head -0.43079 -2.58178 5.58745
rclavicle 9.323e-014 -6.0033e-014
rhumerus -8.90599 -18.9404 -58.1941
rradius 120.784
rwrist -43.4892
rhand -23.4805 -6.12922
rfingers 7.12502
rthumb 2.97911 -36.0882
lclavicle 9.323e-014 -6.0033e-014
lhumerus 50.9857 -17.8254 53.3332
lradius 44.1924
lwrist -23.0743
lhand -27.942 -17.3248
lfingers 7.12502
lthumb -1.32993 12.6508
rfemur -58.4165 -1.8196 34.2119
rtibia 77.9634
rfoot -33.9082 -13.8783
rtoes 24.2821
lfemur -4.75658 15.9176 -26.2147
ltibia 20.4812
lfoot 15.8601 16.9435
ltoes 23.4588
1968
root -25.2679 19.5692 -5.42322 194.257 58.4613 -177.08
lowerback 20.3208 -5.76691 -5.39088
upperback 5.16899 -7.77407 4.8638
thorax -4.1714 -3.64324 10.0969
lowerneck -7.29331 -5.8756 -9.94154
upperneck -11.8222 -5.81583 15.9769
head -1.39511 -2.63269 6.44764
rclavicle 3.11098e-014 -8.36883e-014
rhumerus -10.7085 -19.172 -55.6003
rradius 121.225
rwrist -44.4761
rhand -23.2111 -6.13915
rfingers 7.12502
rthumb 3.23926 -36.0943
lclavicle 3.11098e-014 -8.36883e-014
lhumerus 51.7071 -17.8843 54.7186
lradius 42.8588
lwrist -24.0616
lhand -26.295 -16.1199
lfingers 7.12502
lthumb 0.260784 13.8597
rfemur -58.9506 -1.92083 35.8816
rtibia 76.6323
rfoot -33.7232 -13.7965
rtoes 25.2756
lfemur -8.00719 14.6089 -24.2595
ltibia 23.4168
lfoot 17.1252 14.6493
ltoes 21.9973
1969
root -25.2003 19.6619 -5.50668 194.875 59.3547 -175.904
lowerback 20.1565 -5.53096 -3.80874
upperback 5.67426 -7.16996 3.9799
thorax -4.00225 -3.34125 8.0452
lowerneck -8.3265 -6.34868 -6.31463
upperneck -11.6533 -6.72514 13.9881
head -1.31056 -3.14353 5.15593
rclavicle 1.19271e-014 -1.19271e-015
rhumerus -13.0368 -20.3584 -56.1395
rradius 121.925
rwrist -44.8007
rhand -22.7307 -6.03851
rfingers 7.12502
rthumb 3.7032 -35.9861
lclavicle 1.19271e-014 -1.19271e-015
lhumerus 53.8157 -19.1033 51.2805
lradius 42.4391
lwrist -22.551
lhand -24.449 -15.076
lfingers 7.12502
lthumb 2.04371 14.894
rfemur -57.1663 -1.83638 36.2376
rtibia 75.2122
rfoot -33.2004 -13.9358
rtoes 23.646
lfemur -9.15695 12.7533 -23.4147
ltibia 26.8731
lfoot 14.2296 14.8681
ltoes 17.9742
1970
root -25.1655 19.7299 -5.49066 196.684 59.2381 -174.771
lowerback 19.7052 -5.26534 -3.3836
upperback 5.70552 -6.73593 4.04559
thorax -3.84978 -3.13586 7.73555
lowerneck -8.72266 -6.88811 -3.97636
upperneck -12.5294 -7.55589 12.6576
head -1.5996 -3.61932 4.35295
rclavicle -2.5842e-014 2.5842e-014
rhumerus -14.5296 -21.1732 -56.586
rradius 122.341
rwrist -44.0211
rhand -22.7331 -6.38208
rfingers 7.12502
rthumb 3.70083 -36.3297
lclavicle -2.5842e-014 2.5842e-014
lhumerus 55.493 -19.2088 51.2825
lradius 40.8738
lwrist -23.2544
lhand -22.9565 -15.7472
lfingers 7.12502
lthumb 3.48514 14.204
rfemur -57.2572 -1.71992 37.1493
rtibia 74.0725
rfoot -32.8037 -13.9871
rtoes 23.2482
lfemur -11.5819 13.31 -22.2072
ltibia 29.5132
lfoot 15.7041 11.0453
ltoes 14.074
1971
root -25.1106 19.7644 -5.55355 196.418 60.1301 -174.674
lowerback 20.2408 -5.9215 -3.57344
upperback 5.8166 -7.64587 3.74315
thorax -3.88368 -3.58146 7.74853
lowerneck -9.31185 -5.84718 -6.59426
upperneck -11.0977 -6.02073 14.0986
head -1.04608 -2.73112 5.22642
rclavicle -2.8625e-014 2.42517e-014
rhumerus -14.1882 -18.7045 -58.6063
rradius 122.359
rwrist -42.3008
rhand -23.1663 -6.26541
rfingers 7.12502
rthumb 3.2825 -36.2199
lclavicle -2.8625e-014 2.42517e-014
lhumerus 54.2749 -16.9324 50.7342
lradius 39.6766
lwrist -23.5073
lhand -21.4953 -15.9782
lfingers 7.12502
lthumb 4.89606 13.9452
rfemur -56.0294 -1.58892 36.9492
rtibia 73.1572
rfoot -32.6245 -13.5377
rtoes 23.0514
lfemur -12.3742 15.9875 -21.7291
ltibia 31.9578
lfoot 16.3526 5.45813
ltoes 10.0588
1972
root -25.0538 19.8691 -5.60841 194.9 60.8637 -176.335
lowerback 20.5665 -5.23883 -4.4426
upperback 5.88509 -6.95394 3.39323
thorax -4.01824 -3.23192 7.75138
lowerneck -10.2483 -6.82324 -7.53407
upperneck -10.3606 -7.22595 15.792
head -0.425825 -3.25483 5.80604
rclavicle -2.78299e-014 -5.00937e-014
rhumerus -16.1786 -19.9905 -58.038
rradius 122.814
rwrist -41.3835
rhand -23.2772 -6.18666
rfingers 7.12502
rthumb 3.17542 -36.1428
lclavicle -2.78299e-014 -5.00937e-014
lhumerus 56.04 -17.9663 48.6338
lradius 39.5125
lwrist -22.0792
lhand -19.7674 -13.6804
lfingers 7.12502
lthumb 6.56432 16.1979
rfemur -54.9326 -1.62941 35.7775
rtibia 72.0845
rfoot -32.5428 -12.9705
rtoes 23.3028
lfemur -13.1723 13.6018 -22.5556
ltibia 34.3699
lfoot 14.5748 5.10787
ltoes 10.5295
1973
root -25.0257 19.9596 -5.61011 196.194 60.9078 -175.277
lowerback 20.6576 -5.52312 -3.77582
upperback 5.82652 -7.19212 3.40859
thorax -4.1779 -3.33956 7.45767
lowerneck -9.90267 -6.69681 -6.16344
upperneck -11.5237 -7.07599 14.7411
head -0.952548 -3.25095 5.30151
rclavicle 8.78628e-014 -5.1684e-014
rhumerus -16.8617 -19.9487 -57.9976
rradius 122.922
rwrist -41.1609
rhand -22.7196 -6.43899
rfingers 7.12502
rthumb 3.71392 -36.3864
lclavicle 8.78628e-014 -5.1684e-014
lhumerus 56.3486 -17.3217 48.4549
lradius 38.0444
lwrist -22.5075
lhand -17.7223 -14.1803
lfingers 7.12502
lthumb 8.5383 15.627
rfemur -54.5389 -2.11228 36.5982
rtibia 70.8436
rfoot -32.0489 -12.2219
rtoes 23.5435
lfemur -14.8091 12.9318 -21.5977
ltibia 36.6775
lfoot 13.6205 3.30619
ltoes 8.82013
1974
root -24.9779 20.055 -5.64527 197.917 61.2168 -173.471
lowerback 20.7949 -5.29221 -3.06496
upperback 5.81052 -6.72194 3.6612
thorax -4.39136 -3.09547 7.25185
lowerneck -9.4369 -6.92063 -5.94781
upperneck -12.4073 -7.31116 14.6161
head -1.27758 -3.40612 5.25303
rclavicle 4.25399e-014 -3.02153e-014
rhumerus -18.2311 -20.4419 -58.2052
rradius 123.517
rwrist -39.9779
rhand -21.7969 -6.8706
rfingers 7.12502
rthumb 4.60485 -36.8006
lclavicle 4.25399e-014 -3.02153e-014
lhumerus 57.1737 -17.6408 49.3395
lradius 36.3824
lwrist -23.8008
lhand -16.3437 -14.2585
lfingers 7.12502
lthumb 9.86857 15.4902
rfemur -53.5163 -2.13494 37.4899
rtibia 69.4278
rfoot -31.5559 -12.1576
rtoes 22.5588
lfemur -16.0359 12.8425 -20.2586
ltibia 39.0388
lfoot 12.5727 1.54593
ltoes 9.65583
1975
root -24.9001 20.1597 -5.72139 199.662 61.7608 -171.505
lowerback 20.814 -4.10799 -2.81436
upperback 5.92499 -5.08602 4.00087
thorax -4.49475 -2.28222 7.1178
lowerneck -9.20568 -7.60574 -4.80292
upperneck -13.2111 -8.19381 14.8312
head -1.50368 -3.91094 5.12355
rclavicle -1.53064e-014 -1.03368e-013
rhumerus -20.8589 -22.8469 -57.0748
rradius 124.448
rwrist -39.1881
rhand -21.3896 -7.34595
rfingers 7.12502
rthumb 4.99814 -37.267
lclavicle -1.53064e-014 -1.03368e-013
lhumerus 59.3361 -19.563 49.2331
lradius 35.6404
lwrist -24.0142
lhand -14.5098 -14.4959
lfingers 7.12502
lthumb 11.6375 15.1609
rfemur -52.0286 -2.0994 38.1412
rtibia 67.9426
rfoot -31.5006 -11.5626
rtoes 22.2349
lfemur -16.9256 13.3487 -19.0469
ltibia 41.6927
lfoot 11.1253 -0.830339
ltoes 5.36402
1976
root -24.871 20.244 -5.73706 200.353 62.1595 -170.468
lowerback 21.2199 -5.66162 -1.92797
upperback 5.94469 -6.92266 3.90186
thorax -4.54631 -3.17986 6.95764
lowerneck -8.8566 -6.68049 -8.33759
upperneck -12.7263 -6.73814 15.9645
head -1.35032 -3.07524 6.11708
rclavicle -5.68524e-014 1.15295e-014
rhumerus -19.2043 -19.2817 -59.7924
rradius 124.712
rwrist -37.8496
rhand -21.4509 -7.4839
rfingers 7.12502
rthumb 4.93903 -37.4063
lclavicle -5.68524e-014 1.15295e-014
lhumerus 56.4631 -16.6844 47.9226
lradius 35.0731
lwrist -23.4506
lhand -12.5327 -14.1816
lfingers 7.12502
lthumb 13.5436 15.3579
rfemur -50.8659 -1.59183 38.4228
rtibia 66.4688
rfoot -31.1286 -11.0904
rtoes 23.5449
lfemur -18.2708 13.5936 -18.1302
ltibia 44.4159
lfoot 9.46609 -1.1863
ltoes 5.51478
1977
root -24.8391 20.336 -5.74713 201.126 62.2871 -170.024
lowerback 21.518 -5.5071 -2.05379
upperback 5.74152 -6.73749 4.1169
thorax -4.89951 -3.07664 7.2723
lowerneck -9.49255 -6.79504 -8.70587
upperneck -12.2139 -6.93051 15.4511
head -1.09384 -3.11827 5.97904
rclavicle -2.50469e-014 2.54444e-014
rhumerus -20.2399 -19.7881 -59.9793
rradius 125.573
rwrist -36.255
rhand -21.7884 -8.45881
rfingers 7.12502
rthumb 4.61312 -38.3886
lclavicle -2.50469e-014 2.54444e-014
lhumerus 56.8822 -16.8303 47.8768
lradius 33.8777
lwrist -23.5129
lhand -10.9881 -13.5941
lfingers 7.12502
lthumb 15.0319 15.8402
rfemur -50.2848 -1.67743 38.7884
rtibia 65.0726
rfoot -30.6487 -11.0596
rtoes 23.2974
lfemur -20.2168 13.5637 -17.4238
ltibia 47.1322
lfoot 7.93156 -1.59045
ltoes 4.04683
1978
root -24.7931 20.4046 -5.78681 202.276 62.8855 -169.285
lowerback 21.1774 -5.63134 -2.05583
upperback 5.7482 -6.93598 3.92812
thorax -4.71703 -3.18901 7.07222
lowerneck -9.30042 -6.47092 -7.14193
upperneck -13.2884 -6.47947 14.9844
head -1.57514 -2.96028 5.62782
rclavicle 4.33351e-014 -1.82882e-014
rhumerus -20.7207 -19.6759 -61.6451
rradius 126.614
rwrist -33.6537
rhand -22.7287 -10.3236
rfingers 7.12502
rthumb 3.70511 -40.2711
lclavicle 4.33351e-014 -1.82882e-014
lhumerus 56.4827 -15.8147 48.8571
lradius 32.0258
lwrist -25.5107
lhand -9.52654 -14.4257
lfingers 7.12502
lthumb 16.4395 14.8977
rfemur -49.73 -1.55665 39.029
rtibia 63.8801
rfoot -30.3169 -10.6752
rtoes 22.7944
lfemur -21.828 14.5951 -16.8908
ltibia 49.9009
lfoot 6.58747 -2.92941
ltoes -1.29715
1979
root -24.7569 20.4601 -5.82217 203.327 63.6717 -168.326
lowerback 21.1042 -5.22138 -1.68862
upperback 5.69901 -6.31986 4.05302
thorax -4.84039 -2.88307 6.85872
lowerneck -8.75381 -6.79058 -7.61651
upperneck -14.1111 -6.84231 14.7785
head -1.85742 -3.1473 5.66705
rclavicle -5.84427e-014 -7.15625e-015
rhumerus -21.6408 -20.6934 -61.818
rradius 127.538
rwrist -30.6724
rhand -24.6273 -12.1789
rfingers 7.12502
rthumb 1.87149 -42.1504
lclavicle -5.84427e-014 -7.15625e-015
lhumerus 56.9088 -16.2454 50.45
lradius 30.3316
lwrist -27.0595
lhand -8.48163 -15.5129
lfingers 7.12502
lthumb 17.4454 13.7242
rfemur -48.9639 -0.96042 39.1138
rtibia 62.7639
rfoot -29.8784 -10.2138
rtoes 22.7345
lfemur -23.1331 16.084 -16.2885
ltibia 52.5372
lfoot 5.6376 -3.46474
ltoes -1.36928
